<?xml version="1.0" encoding="utf-8"?>
<!-- Generator: Adobe Illustrator 17.0.0, SVG Export Plug-In . SVG Version: 6.00 Build 0)  -->
<!DOCTYPE svg PUBLIC "-//W3C//DTD SVG 1.1 Basic//EN" "http://www.w3.org/Graphics/SVG/1.1/DTD/svg11-basic.dtd">
<svg version="1.1" baseProfile="basic" id="Layer_1"
	 xmlns="http://www.w3.org/2000/svg" xmlns:xlink="http://www.w3.org/1999/xlink" x="0px" y="0px" width="42px" height="56px"
	 viewBox="8.9999924 2.0000012 42 56" xml:space="preserve">
<path d="M37.9999924,28.0000019c-0.2799988,0-0.5299988,0.1000004-0.7000008,0.2999992l-6.2999992,6.3000011V3.0000012
	c0-0.5499992-0.4500008-1-1-1s-1,0.4500008-1,1v31.6000004l-6.2999992-6.3000011C22.529995,28.1000004,22.279995,28,21.9999924,28
	c-0.5499992,0-1,0.4500008-1,1c0,0.2800007,0.0999985,0.5300007,0.2999992,0.7000008l8,8
	C29.4699917,37.9000015,29.7199917,38,29.9999924,38s0.5300007-0.0999985,0.7000008-0.2999992l8-8
	C38.8999939,29.5300007,38.9999924,29.2800007,38.9999924,29C38.9999924,28.4500008,38.5499916,28,37.9999924,28.0000019z"/>
<path d="M48.9999924,18h-13c-0.5499992,0-1,0.4500008-1,1s0.4500008,1,1,1h13v36h-38V20h13c0.5499992,0,1-0.4500008,1-1
	s-0.4500008-1-1-1h-13c-1.1000004,0-2,0.8999996-2,2v36c0,1.0999985,0.8999996,2,2,2h38c1.0999985,0,2-0.9000015,2-2V20
	C50.9999924,18.8999996,50.0999908,18,48.9999924,18z"/>
</svg>
